<svg xmlns="http://www.w3.org/2000/svg" version="1.1" viewBox="1.7542104721069336 1.290008544921875 714.4158325195312 588.5250244140625" width="718.00" height="591.00">
<g stroke-width="2.00" fill="none" stroke-linecap="butt">
<path stroke="#13793c" d="&#10;  M 266.64 54.35&#10;  L 266.60 258.90&#10;  A 0.70 0.70 0.0 0 1 265.90 259.60&#10;  Q 216.32 259.56 136.90 259.56&#10;  Q 133.02 259.56 131.36 260.37&#10;  Q 128.24 261.90 128.25 265.75&#10;  Q 128.40 303.47 128.40 465.25&#10;  Q 128.40 466.93 129.20 467.30" data-c-stroke="13793c"/>
<path stroke="#13793c" d="&#10;  M 402.42 467.47&#10;  Q 401.76 465.00 401.77 463.00&#10;  Q 401.91 362.42 401.72 267.12&#10;  Q 401.72 266.60 402.02 266.18&#10;  Q 404.32 262.93 406.64 260.00&#10;  Q 408.47 257.69 411.35 253.11&#10;  Q 419.02 240.92 448.60 195.06&#10;  Q 453.34 187.71 455.64 183.75&#10;  Q 459.25 177.53 462.61 172.35&#10;  Q 465.04 168.60 468.24 163.06&#10;  Q 470.93 158.41 473.70 153.67" data-c-stroke="13793c"/>
<path stroke="#17773c" d="&#10;  M 63.05 324.89&#10;  A 2.53 2.51 -81.1 0 0 64.79 327.29&#10;  L 110.08 341.84&#10;  Q 110.66 342.02 110.72 341.42&#10;  L 111.82 329.60&#10;  Q 111.88 328.98 111.26 328.95&#10;  Q 107.02 328.77 101.17 327.08&#10;  Q 84.32 322.23 69.22 317.61&#10;  C 67.57 317.11 65.88 317.02 64.16 316.95&#10;  Q 63.05 316.91 63.05 318.02&#10;  L 63.05 324.89" data-c-stroke="17773c"/>
<path stroke="#17773c" d="&#10;  M 418.66 340.09&#10;  Q 418.66 341.28 419.84 341.16&#10;  Q 422.41 340.91 424.98 340.12&#10;  Q 425.02 340.11 450.69 332.14&#10;  Q 456.76 330.26 464.56 326.51&#10;  Q 468.44 324.65 467.42 320.32&#10;  Q 467.41 320.27 467.38 320.14&#10;  Q 466.45 315.83 461.98 317.16&#10;  L 419.60 329.71&#10;  Q 418.66 329.99 418.66 330.98&#10;  L 418.66 340.09" data-c-stroke="17773c"/>
<path stroke="#17773c" d="&#10;  M 109.98 367.63&#10;  Q 110.12 366.46 110.14 366.08&#10;  A 0.53 0.53 0.0 0 0 109.44 365.55&#10;  L 65.14 380.65&#10;  A 1.01 1.01 0.0 0 0 64.45 381.61&#10;  L 64.45 392.40&#10;  A 0.32 0.32 0.0 0 0 64.83 392.71&#10;  Q 74.72 390.57 83.00 387.25&#10;  Q 90.69 384.17 96.33 382.33&#10;  Q 99.66 381.25 109.78 377.65&#10;  Q 110.17 377.52 110.12 377.10&#10;  Q 109.49 371.80 109.98 367.63" data-c-stroke="17773c"/>
<path stroke="#17773c" d="&#10;  M 460.33 391.79&#10;  C 467.13 394.09 466.86 387.69 467.98 383.04&#10;  A 0.91 0.91 0.0 0 0 467.39 381.96&#10;  L 420.84 365.56&#10;  A 0.86 0.85 -80.0 0 0 419.70 366.36&#10;  Q 419.68 370.98 419.69 374.51&#10;  C 419.70 377.27 421.23 378.63 424.01 379.15&#10;  Q 427.68 379.84 433.28 382.21&#10;  Q 438.50 384.42 460.33 391.79" data-c-stroke="17773c"/>
</g>
<circle fill="#257180" cx="618.22" cy="99.24" r="97.95" data-c-fill="00d759"/>
<path fill="#257180" d="&#10;  M 266.64 54.35&#10;  L 266.60 258.90&#10;  A 0.70 0.70 0.0 0 1 265.90 259.60&#10;  Q 216.32 259.56 136.90 259.56&#10;  Q 133.02 259.56 131.36 260.37&#10;  Q 128.24 261.90 128.25 265.75&#10;  Q 128.40 303.47 128.40 465.25&#10;  Q 128.40 466.93 129.20 467.30&#10;  Q 127.96 468.38 126.75 468.33&#10;  Q 121.52 468.11 115.51 468.26&#10;  Q 111.34 468.37 108.77 470.91&#10;  C 107.47 472.20 107.24 474.24 107.20 476.00&#10;  Q 106.97 488.15 107.06 498.69&#10;  Q 107.10 503.80 108.50 506.15&#10;  Q 110.70 509.83 116.05 509.84&#10;  Q 240.77 510.00 414.38 509.76&#10;  Q 419.32 509.75 421.01 509.01&#10;  Q 424.65 507.42 424.75 502.50&#10;  Q 424.99 490.86 424.81 474.58&#10;  Q 424.76 470.07 420.31 469.07&#10;  Q 416.88 468.30 412.24 468.13&#10;  Q 407.35 467.95 402.42 467.47&#10;  Q 401.76 465.00 401.77 463.00&#10;  Q 401.91 362.42 401.72 267.12&#10;  Q 401.72 266.60 402.02 266.18&#10;  Q 404.32 262.93 406.64 260.00&#10;  Q 408.47 257.69 411.35 253.11&#10;  Q 419.02 240.92 448.60 195.06&#10;  Q 453.34 187.71 455.64 183.75&#10;  Q 459.25 177.53 462.61 172.35&#10;  Q 465.04 168.60 468.24 163.06&#10;  Q 470.93 158.41 473.70 153.67&#10;  Q 479.36 160.18 483.60 166.65&#10;  Q 494.45 183.25 503.50 200.91&#10;  C 506.56 206.88 509.41 214.14 511.95 219.92&#10;  Q 513.65 223.80 514.92 227.66&#10;  C 518.71 239.17 521.15 245.60 523.22 255.14&#10;  Q 524.43 260.77 524.87 262.25&#10;  Q 525.89 265.67 526.44 269.34&#10;  Q 526.86 272.17 528.22 279.10&#10;  Q 529.32 284.67 529.68 288.89&#10;  Q 530.95 303.84 530.96 315.00&#10;  Q 530.97 339.87 530.64 346.46&#10;  Q 530.49 349.45 529.55 357.75&#10;  Q 528.86 363.82 527.70 368.95&#10;  Q 525.18 380.11 522.80 391.30&#10;  Q 522.02 394.94 520.61 399.72&#10;  Q 518.74 406.09 518.06 408.06&#10;  Q 516.63 412.24 509.54 429.68&#10;  Q 505.20 440.35 501.21 447.85&#10;  Q 491.26 466.50 483.13 477.90&#10;  Q 479.45 483.06 467.68 497.94&#10;  Q 463.79 502.85 459.03 507.35&#10;  Q 456.23 510.00 454.61 511.79&#10;  C 452.28 514.38 450.83 516.09 448.90 517.84&#10;  Q 440.41 525.52 432.76 531.98&#10;  Q 427.81 536.17 417.40 543.02&#10;  Q 402.65 552.71 401.56 553.43&#10;  Q 395.29 557.52 388.46 560.77&#10;  Q 379.30 565.12 364.97 572.00&#10;  Q 359.62 574.56 341.29 579.47&#10;  Q 328.59 582.88 316.99 585.28&#10;  Q 306.79 587.40 297.23 588.33&#10;  Q 266.68 591.28 235.96 588.37&#10;  Q 225.45 587.37 216.21 585.46&#10;  Q 207.22 583.60 192.10 579.90&#10;  Q 187.36 578.74 178.01 575.65&#10;  Q 171.09 573.36 164.35 570.33&#10;  Q 148.29 563.13 134.12 555.68&#10;  Q 130.73 553.90 127.83 551.92&#10;  Q 115.45 543.44 103.16 534.83&#10;  Q 95.34 529.34 81.70 515.70&#10;  Q 68.67 502.67 57.80 488.90&#10;  Q 54.25 484.41 52.31 481.39&#10;  C 49.96 477.73 47.23 474.82 45.02 471.22&#10;  Q 37.11 458.30 31.36 447.44&#10;  Q 27.56 440.27 23.34 429.72&#10;  Q 19.07 419.08 16.12 411.62&#10;  Q 15.16 409.20 12.66 400.00&#10;  Q 5.20 372.57 3.57 360.15&#10;  Q 3.21 357.39 2.26 341.22&#10;  Q 1.64 330.70 1.78 322.27&#10;  Q 2.14 300.46 3.62 288.42&#10;  Q 4.34 282.58 8.37 262.33&#10;  Q 10.08 253.75 13.22 243.32&#10;  C 16.31 233.05 19.42 225.95 24.72 212.45&#10;  C 26.48 207.96 29.21 202.41 31.50 197.43&#10;  Q 32.60 195.05 34.65 191.62&#10;  C 38.25 185.63 42.47 178.05 46.30 172.24&#10;  Q 54.66 159.54 64.37 147.85&#10;  Q 68.31 143.10 75.40 135.91&#10;  C 81.03 130.20 85.56 125.06 90.69 120.52&#10;  C 103.94 108.79 117.14 99.85 132.73 90.00&#10;  Q 135.87 88.02 140.08 85.92&#10;  Q 146.58 82.69 147.60 82.18&#10;  Q 162.73 74.50 170.98 71.49&#10;  Q 191.84 63.87 211.58 60.19&#10;  Q 215.54 59.46 225.35 57.66&#10;  C 235.59 55.79 246.24 55.11 256.75 54.44&#10;  Q 258.75 54.32 266.64 54.35&#10;  Z&#10;  M 63.05 324.89&#10;  A 2.53 2.51 -81.1 0 0 64.79 327.29&#10;  L 110.08 341.84&#10;  Q 110.66 342.02 110.72 341.42&#10;  L 111.82 329.60&#10;  Q 111.88 328.98 111.26 328.95&#10;  Q 107.02 328.77 101.17 327.08&#10;  Q 84.32 322.23 69.22 317.61&#10;  C 67.57 317.11 65.88 317.02 64.16 316.95&#10;  Q 63.05 316.91 63.05 318.02&#10;  L 63.05 324.89&#10;  Z&#10;  M 418.66 340.09&#10;  Q 418.66 341.28 419.84 341.16&#10;  Q 422.41 340.91 424.98 340.12&#10;  Q 425.02 340.11 450.69 332.14&#10;  Q 456.76 330.26 464.56 326.51&#10;  Q 468.44 324.65 467.42 320.32&#10;  Q 467.41 320.27 467.38 320.14&#10;  Q 466.45 315.83 461.98 317.16&#10;  L 419.60 329.71&#10;  Q 418.66 329.99 418.66 330.98&#10;  L 418.66 340.09&#10;  Z&#10;  M 109.98 367.63&#10;  Q 110.12 366.46 110.14 366.08&#10;  A 0.53 0.53 0.0 0 0 109.44 365.55&#10;  L 65.14 380.65&#10;  A 1.01 1.01 0.0 0 0 64.45 381.61&#10;  L 64.45 392.40&#10;  A 0.32 0.32 0.0 0 0 64.83 392.71&#10;  Q 74.72 390.57 83.00 387.25&#10;  Q 90.69 384.17 96.33 382.33&#10;  Q 99.66 381.25 109.78 377.65&#10;  Q 110.17 377.52 110.12 377.10&#10;  Q 109.49 371.80 109.98 367.63&#10;  Z&#10;  M 460.33 391.79&#10;  C 467.13 394.09 466.86 387.69 467.98 383.04&#10;  A 0.91 0.91 0.0 0 0 467.39 381.96&#10;  L 420.84 365.56&#10;  A 0.86 0.85 -80.0 0 0 419.70 366.36&#10;  Q 419.68 370.98 419.69 374.51&#10;  C 419.70 377.27 421.23 378.63 424.01 379.15&#10;  Q 427.68 379.84 433.28 382.21&#10;  Q 438.50 384.42 460.33 391.79&#10;  Z" data-c-fill="00d759"/>
<path fill="#251b1e" d="&#10;  M 473.70 153.67&#10;  Q 470.93 158.41 468.24 163.06&#10;  Q 465.04 168.60 462.61 172.35&#10;  Q 459.25 177.53 455.64 183.75&#10;  Q 453.34 187.71 448.60 195.06&#10;  Q 419.02 240.92 411.35 253.11&#10;  Q 408.47 257.69 406.64 260.00&#10;  Q 404.32 262.93 402.02 266.18&#10;  Q 401.72 266.60 401.72 267.12&#10;  Q 401.91 362.42 401.77 463.00&#10;  Q 401.76 465.00 402.42 467.47&#10;  Q 391.51 467.17 380.50 467.15&#10;  Q 254.86 466.89 129.20 467.30&#10;  Q 128.40 466.93 128.40 465.25&#10;  Q 128.40 303.47 128.25 265.75&#10;  Q 128.24 261.90 131.36 260.37&#10;  Q 133.02 259.56 136.90 259.56&#10;  Q 216.32 259.56 265.90 259.60&#10;  A 0.70 0.70 0.0 0 0 266.60 258.90&#10;  L 266.64 54.35&#10;  Q 285.11 54.88 296.19 56.36&#10;  Q 301.62 57.08 321.54 60.77&#10;  Q 332.89 62.87 341.04 65.19&#10;  Q 353.50 68.73 365.59 73.56&#10;  Q 374.81 77.24 383.14 81.60&#10;  Q 390.14 85.26 394.67 87.30&#10;  Q 399.40 89.43 405.64 93.75&#10;  Q 411.91 98.10 425.05 106.70&#10;  C 430.64 110.35 436.65 116.19 441.23 119.72&#10;  Q 444.64 122.35 449.49 127.32&#10;  Q 456.00 134.01 462.92 140.34&#10;  Q 467.55 144.58 473.70 153.67&#10;  Z&#10;  M 386.29 278.69&#10;  A 2.05 2.05 0.0 0 0 384.24 276.64&#10;  L 145.92 276.64&#10;  A 2.05 2.05 0.0 0 0 143.87 278.69&#10;  L 143.87 448.49&#10;  A 2.05 2.05 0.0 0 0 145.92 450.54&#10;  L 384.24 450.54&#10;  A 2.05 2.05 0.0 0 0 386.29 448.49&#10;  L 386.29 278.69&#10;  Z" data-c-fill="251b1e"/>
<path fill="#251b1e" d="&#10;  M 281.65 341.96&#10;  A 0.65 0.65 0.0 0 0 282.19 342.60&#10;  Q 288.60 343.69 293.35 348.80&#10;  Q 296.63 352.33 297.82 355.89&#10;  Q 298.48 357.87 298.53 363.88&#10;  Q 298.63 376.16 298.44 420.22&#10;  Q 298.42 423.92 297.61 425.78&#10;  Q 296.07 429.32 293.69 430.32&#10;  Q 289.86 431.93 285.40 431.85&#10;  Q 282.69 431.81 282.60 431.81&#10;  Q 261.66 431.82 247.70 431.68&#10;  Q 240.88 431.61 238.42 430.45&#10;  Q 233.40 428.07 233.31 421.27&#10;  Q 233.00 398.48 233.18 359.76&#10;  C 233.20 355.13 234.78 352.57 237.59 348.99&#10;  Q 240.78 344.94 245.85 343.38&#10;  Q 248.59 342.54 249.01 342.41&#10;  A 1.84 1.78 -9.1 0 0 250.28 340.72&#10;  L 250.37 325.06&#10;  A 1.61 1.61 0.0 0 0 248.76 323.45&#10;  L 238.85 323.45&#10;  A 1.15 1.15 0.0 0 1 237.70 322.35&#10;  Q 237.42 316.63 237.57 310.00&#10;  Q 237.69 304.58 241.90 303.52&#10;  Q 242.65 303.34 248.62 303.33&#10;  Q 267.47 303.33 286.31 303.64&#10;  Q 290.37 303.71 290.70 303.79&#10;  Q 293.33 304.44 293.49 308.00&#10;  Q 293.74 313.28 293.67 322.04&#10;  Q 293.66 322.55 293.15 322.55&#10;  L 282.81 322.55&#10;  A 1.16 1.15 0.0 0 0 281.65 323.70&#10;  L 281.65 341.96&#10;  Z&#10;  M 257.09 395.39&#10;  Q 257.30 400.31 258.27 405.75&#10;  C 259.21 411.02 264.77 412.63 269.25 410.66&#10;  Q 272.70 409.15 273.03 404.71&#10;  Q 273.38 400.13 273.39 395.87&#10;  A 1.09 1.09 0.0 0 1 274.43 394.78&#10;  Q 277.48 394.65 279.20 394.33&#10;  C 282.26 393.76 285.32 394.57 288.56 394.36&#10;  A 1.31 1.30 -1.9 0 0 289.78 393.06&#10;  L 289.78 385.76&#10;  Q 289.78 384.32 288.34 384.32&#10;  L 277.81 384.32&#10;  Q 275.46 384.32 275.21 381.99&#10;  Q 274.66 377.07 272.20 369.38&#10;  Q 271.64 367.65 269.59 366.77&#10;  C 263.03 363.99 258.35 366.68 257.32 373.22&#10;  Q 257.11 374.51 256.70 378.07&#10;  Q 256.42 380.45 255.55 383.72&#10;  A 0.94 0.93 -82.2 0 1 254.65 384.41&#10;  L 240.80 384.41&#10;  A 1.19 1.19 0.0 0 0 239.61 385.60&#10;  L 239.61 393.57&#10;  A 0.98 0.98 0.0 0 0 240.59 394.55&#10;  L 256.21 394.55&#10;  A 0.88 0.88 0.0 0 1 257.09 395.39&#10;  Z" data-c-fill="251b1e"/>
<path fill="#2e161e" d="&#10;  M 63.05 324.89&#10;  L 63.05 318.02&#10;  Q 63.05 316.91 64.16 316.95&#10;  C 65.88 317.02 67.57 317.11 69.22 317.61&#10;  Q 84.32 322.23 101.17 327.08&#10;  Q 107.02 328.77 111.26 328.95&#10;  Q 111.88 328.98 111.82 329.60&#10;  L 110.72 341.42&#10;  Q 110.66 342.02 110.08 341.84&#10;  L 64.79 327.29&#10;  A 2.53 2.51 -81.1 0 1 63.05 324.89&#10;  Z" data-c-fill="2e161e"/>
<path fill="#2e161e" d="&#10;  M 418.66 340.09&#10;  L 418.66 330.98&#10;  Q 418.66 329.99 419.60 329.71&#10;  L 461.98 317.16&#10;  Q 466.45 315.83 467.38 320.14&#10;  Q 467.41 320.27 467.42 320.32&#10;  Q 468.44 324.65 464.56 326.51&#10;  Q 456.76 330.26 450.69 332.14&#10;  Q 425.02 340.11 424.98 340.12&#10;  Q 422.41 340.91 419.84 341.16&#10;  Q 418.66 341.28 418.66 340.09&#10;  Z" data-c-fill="2e161e"/>
<path fill="#2e161e" d="&#10;  M 109.98 367.63&#10;  Q 109.49 371.80 110.12 377.10&#10;  Q 110.17 377.52 109.78 377.65&#10;  Q 99.66 381.25 96.33 382.33&#10;  Q 90.69 384.17 83.00 387.25&#10;  Q 74.72 390.57 64.83 392.71&#10;  A 0.32 0.32 0.0 0 1 64.45 392.40&#10;  L 64.45 381.61&#10;  A 1.01 1.01 0.0 0 1 65.14 380.65&#10;  L 109.44 365.55&#10;  A 0.53 0.53 0.0 0 1 110.14 366.08&#10;  Q 110.12 366.46 109.98 367.63&#10;  Z" data-c-fill="2e161e"/>
<path fill="#2e161e" d="&#10;  M 467.98 383.04&#10;  C 466.86 387.69 467.13 394.09 460.33 391.79&#10;  Q 438.50 384.42 433.28 382.21&#10;  Q 427.68 379.84 424.01 379.15&#10;  C 421.23 378.63 419.70 377.27 419.69 374.51&#10;  Q 419.68 370.98 419.70 366.36&#10;  A 0.86 0.85 -80.0 0 1 420.84 365.56&#10;  L 467.39 381.96&#10;  A 0.91 0.91 0.0 0 1 467.98 383.04&#10;  Z" data-c-fill="2e161e"/>
<path fill="#251b1e" d="&#10;  M 169.81 489.18&#10;  L 169.81 483.53&#10;  A 0.88 0.88 0.0 0 1 170.71 482.65&#10;  L 202.94 483.27&#10;  A 0.88 0.88 0.0 0 1 203.80 484.17&#10;  L 203.71 489.20&#10;  A 0.88 0.88 0.0 0 1 202.83 490.06&#10;  L 170.69 490.06&#10;  A 0.88 0.88 0.0 0 1 169.81 489.18&#10;  Z" data-c-fill="251b1e"/>
</svg>